<svg viewBox="0 0 24 24" fill="none" xmlns="http://www.w3.org/2000/svg">
<path d="M16.5156 9.34814H21.0156V4.84814" stroke="currentColor" stroke-width="1.5" stroke-linecap="round" stroke-linejoin="round"/>
<path d="M6.16602 6.16637C6.9321 5.40029 7.84157 4.7926 8.84251 4.37799C9.84344 3.96339 10.9162 3.75 11.9996 3.75C13.0831 3.75 14.1558 3.96339 15.1568 4.37799C16.1577 4.7926 17.0672 5.40029 17.8333 6.16637L21.0153 9.34835" stroke="currentColor" stroke-width="1.5" stroke-linecap="round" stroke-linejoin="round"/>
<path d="M7.48438 14.6519H2.98438V19.1519" stroke="currentColor" stroke-width="1.5" stroke-linecap="round" stroke-linejoin="round"/>
<path d="M17.8336 17.8338C17.0675 18.5999 16.1581 19.2076 15.1571 19.6222C14.1562 20.0368 13.0834 20.2502 12 20.2502C10.9166 20.2502 9.84378 20.0368 8.84285 19.6222C7.84191 19.2076 6.93244 18.5999 6.16635 17.8338L2.98438 14.6519" stroke="currentColor" stroke-width="1.5" stroke-linecap="round" stroke-linejoin="round"/>
</svg>
