<svg viewBox="0 0 24 24" fill="none" xmlns="http://www.w3.org/2000/svg">
<path d="M6.7109 13.5001L3 16.5001V4.50012C3 4.30121 3.07902 4.11044 3.21967 3.96979C3.36032 3.82914 3.55109 3.75012 3.75 3.75012H15.75C15.9489 3.75012 16.1397 3.82914 16.2803 3.96979C16.421 4.11044 16.5 4.30121 16.5 4.50012V12.7501C16.5 12.949 16.421 13.1398 16.2803 13.2805C16.1397 13.4211 15.9489 13.5001 15.75 13.5001H6.7109Z" stroke="currentColor" stroke-width="1.5" stroke-linecap="round" stroke-linejoin="round"/>
<path d="M7.5 13.5001V17.2501C7.5 17.449 7.57902 17.6398 7.71967 17.7805C7.86032 17.9211 8.05109 18.0001 8.25 18.0001H17.2891L21 21.0001V9.00012C21 8.80121 20.921 8.61044 20.7803 8.46979C20.6397 8.32914 20.4489 8.25012 20.25 8.25012H16.5" stroke="currentColor" stroke-width="1.5" stroke-linecap="round" stroke-linejoin="round"/>
</svg>
