<svg viewBox="0 0 32 32" fill="none" xmlns="http://www.w3.org/2000/svg">
<path d="M6.80761 25.1924C5.65711 24.0419 6.42019 21.6265 5.8346 20.2111C5.22755 18.744 3 17.5631 3 16C3 14.4368 5.22756 13.256 5.8346 11.7888C6.4202 10.3735 5.65711 7.95811 6.80761 6.80761C7.95811 5.65711 10.3735 6.42019 11.7889 5.8346C13.256 5.22755 14.4369 3 16 3C17.5632 3 18.744 5.22756 20.2112 5.8346C21.6265 6.4202 24.0419 5.65711 25.1924 6.80761C26.3429 7.95811 25.5798 10.3735 26.1654 11.7889C26.7725 13.256 29 14.4369 29 16C29 17.5632 26.7724 18.744 26.1654 20.2112C25.5798 21.6265 26.3429 24.0419 25.1924 25.1924C24.0419 26.3429 21.6265 25.5798 20.2111 26.1654C18.744 26.7725 17.5631 29 16 29C14.4368 29 13.256 26.7724 11.7888 26.1654C10.3735 25.5798 7.95811 26.3429 6.80761 25.1924Z" stroke="currentColor" stroke-width="2" stroke-linecap="round" stroke-linejoin="round"/>
<path d="M16 24C16.8284 24 17.5 23.3284 17.5 22.5C17.5 21.6716 16.8284 21 16 21C15.1716 21 14.5 21.6716 14.5 22.5C14.5 23.3284 15.1716 24 16 24Z" fill="currentColor"/>
<path d="M16 18.0006V17.0006C16.6922 17.0006 17.3689 16.7953 17.9445 16.4108C18.5201 16.0262 18.9687 15.4795 19.2336 14.84C19.4985 14.2005 19.5678 13.4967 19.4327 12.8178C19.2977 12.1389 18.9644 11.5152 18.4749 11.0257C17.9854 10.5363 17.3618 10.2029 16.6828 10.0679C16.0039 9.93282 15.3001 10.0021 14.6606 10.267C14.0211 10.5319 13.4744 10.9805 13.0899 11.5561C12.7053 12.1317 12.5 12.8084 12.5 13.5006" stroke="currentColor" stroke-width="2" stroke-linecap="round" stroke-linejoin="round"/>
</svg>
