<svg viewBox="0 0 24 24" fill="none" xmlns="http://www.w3.org/2000/svg">
<path d="M4.5 3.75012L19.5 20.2501" stroke="currentColor" stroke-width="2" stroke-linecap="round" stroke-linejoin="round"/>
<path d="M14.5223 14.7749C13.7864 15.4438 12.8149 15.793 11.8215 15.7457C10.8281 15.6983 9.89422 15.2583 9.22524 14.5225C8.55626 13.7866 8.20698 12.8151 8.25424 11.8217C8.3015 10.8283 8.74142 9.89439 9.47724 9.22534" stroke="currentColor" stroke-width="2" stroke-linecap="round" stroke-linejoin="round"/>
<path d="M6.93698 6.43079C3.11486 8.36631 1.5 12.0001 1.5 12.0001C1.5 12.0001 4.5 18.7494 12 18.7494C13.7572 18.7634 15.4926 18.3587 17.0623 17.5687" stroke="currentColor" stroke-width="2" stroke-linecap="round" stroke-linejoin="round"/>
<path d="M19.5576 15.8532C21.6015 14.0225 22.5005 12.0001 22.5005 12.0001C22.5005 12.0001 19.5005 5.24941 12.0005 5.24941C11.3509 5.24834 10.7024 5.30115 10.0615 5.40729" stroke="currentColor" stroke-width="2" stroke-linecap="round" stroke-linejoin="round"/>
<path d="M12.7061 8.31647C13.5031 8.46952 14.229 8.87686 14.775 9.47741C15.3209 10.0779 15.6574 10.8393 15.734 11.6473" stroke="currentColor" stroke-width="2" stroke-linecap="round" stroke-linejoin="round"/>
</svg>
