<svg  viewBox="0 0 16 16" fill="none" xmlns="http://www.w3.org/2000/svg">
<path d="M14.0192 9.39322C13.9999 9.33039 13.9683 9.27199 13.9264 9.22137C13.8845 9.17074 13.833 9.12888 13.7748 9.09817C13.7167 9.06747 13.6531 9.04852 13.5876 9.04242C13.5222 9.03632 13.4561 9.04319 13.3933 9.06262C12.4985 9.30858 11.5545 9.31304 10.6574 9.07554C9.76024 8.83805 8.94207 8.36709 8.28613 7.7106C7.6302 7.0541 7.15993 6.23553 6.9232 5.33821C6.68647 4.44089 6.69173 3.49686 6.93845 2.60223C6.96438 2.51573 6.96641 2.42382 6.94431 2.33626C6.92222 2.2487 6.87683 2.16875 6.81296 2.10491C6.74909 2.04107 6.66913 1.99571 6.58156 1.97365C6.49399 1.95159 6.40208 1.95365 6.31559 1.97961C5.26453 2.27388 4.30884 2.83824 3.5436 3.61653C2.77837 4.39483 2.23026 5.35992 1.95382 6.41581C1.67737 7.4717 1.68222 8.58157 1.96789 9.63501C2.25355 10.6884 2.81007 11.6487 3.58208 12.4203C4.35409 13.1919 5.31467 13.7478 6.36827 14.0329C7.42186 14.318 8.53173 14.3222 9.58746 14.0452C10.6432 13.7681 11.608 13.2195 12.3859 12.4538C13.1637 11.6881 13.7275 10.7321 14.0212 9.68091C14.0487 9.58689 14.0481 9.48685 14.0192 9.39322V9.39322Z" fill="currentColor"/>
</svg>
