<svg viewBox="0 0 24 24" fill="none" xmlns="http://www.w3.org/2000/svg">
<path d="M12 18.375C15.5208 18.375 18.375 15.5208 18.375 12C18.375 8.47918 15.5208 5.625 12 5.625C8.47918 5.625 5.625 8.47918 5.625 12C5.625 15.5208 8.47918 18.375 12 18.375Z" fill="currentColor"/>
<path d="M12 4.125C12.1989 4.125 12.3897 4.04598 12.5303 3.90533C12.671 3.76468 12.75 3.57391 12.75 3.375V1.5C12.75 1.30109 12.671 1.11032 12.5303 0.96967C12.3897 0.829018 12.1989 0.75 12 0.75C11.8011 0.75 11.6103 0.829018 11.4697 0.96967C11.329 1.11032 11.25 1.30109 11.25 1.5V3.375C11.25 3.57391 11.329 3.76468 11.4697 3.90533C11.6103 4.04598 11.8011 4.125 12 4.125Z" fill="currentColor"/>
<path d="M5.37004 6.43165C5.43962 6.50157 5.52231 6.55707 5.61337 6.59498C5.70444 6.63289 5.80209 6.65247 5.90073 6.65258C5.99937 6.6527 6.09706 6.63336 6.18821 6.59567C6.27937 6.55797 6.36219 6.50267 6.43194 6.43292C6.50169 6.36317 6.557 6.28035 6.59469 6.18919C6.63238 6.09804 6.65172 6.00034 6.65161 5.9017C6.65149 5.80306 6.63191 5.70542 6.594 5.61435C6.55609 5.52329 6.50059 5.4406 6.43067 5.37101L5.10486 4.04519C5.03523 3.97548 4.95255 3.92017 4.86154 3.88242C4.77053 3.84467 4.67297 3.82523 4.57444 3.8252C4.47591 3.82516 4.37834 3.84455 4.28731 3.88224C4.19627 3.91993 4.11355 3.97519 4.04388 4.04486C3.97421 4.11453 3.91895 4.19725 3.88126 4.28828C3.84357 4.37932 3.82419 4.47689 3.82422 4.57542C3.82425 4.67394 3.84369 4.7715 3.88144 4.86251C3.91919 4.95352 3.9745 5.03621 4.04422 5.10583L5.37004 6.43165Z" fill="currentColor"/>
<path d="M4.125 12C4.125 11.8011 4.04598 11.6103 3.90533 11.4697C3.76468 11.329 3.57391 11.25 3.375 11.25H1.5C1.30109 11.25 1.11032 11.329 0.96967 11.4697C0.829018 11.6103 0.75 11.8011 0.75 12C0.75 12.1989 0.829018 12.3897 0.96967 12.5303C1.11032 12.671 1.30109 12.75 1.5 12.75H3.375C3.57391 12.75 3.76468 12.671 3.90533 12.5303C4.04598 12.3897 4.125 12.1989 4.125 12V12Z" fill="currentColor"/>
<path d="M5.37004 17.5686L4.04422 18.8944C3.9745 18.964 3.91919 19.0467 3.88144 19.1377C3.84369 19.2287 3.82425 19.3263 3.82422 19.4248C3.82419 19.5234 3.84357 19.6209 3.88126 19.712C3.91895 19.803 3.97421 19.8857 4.04388 19.9554C4.11355 20.025 4.19627 20.0803 4.28731 20.118C4.37834 20.1557 4.47591 20.1751 4.57444 20.175C4.67297 20.175 4.77053 20.1556 4.86154 20.1178C4.95255 20.0801 5.03523 20.0248 5.10486 19.955L6.43067 18.6292C6.50059 18.5596 6.55609 18.477 6.594 18.3859C6.63191 18.2948 6.65149 18.1972 6.65161 18.0985C6.65172 17.9999 6.63238 17.9022 6.59469 17.811C6.557 17.7199 6.50169 17.6371 6.43194 17.5673C6.36219 17.4976 6.27937 17.4423 6.18821 17.4046C6.09706 17.3669 5.99937 17.3475 5.90073 17.3477C5.80209 17.3478 5.70444 17.3673 5.61337 17.4053C5.52231 17.4432 5.43962 17.4987 5.37004 17.5686V17.5686Z" fill="currentColor"/>
<path d="M12 19.875C11.8011 19.875 11.6103 19.954 11.4697 20.0947C11.329 20.2353 11.25 20.4261 11.25 20.625V22.5C11.25 22.6989 11.329 22.8897 11.4697 23.0303C11.6103 23.171 11.8011 23.25 12 23.25C12.1989 23.25 12.3897 23.171 12.5303 23.0303C12.671 22.8897 12.75 22.6989 12.75 22.5V20.625C12.75 20.4261 12.671 20.2353 12.5303 20.0947C12.3897 19.954 12.1989 19.875 12 19.875V19.875Z" fill="currentColor"/>
<path d="M18.6292 17.5686C18.5596 17.4987 18.477 17.4432 18.3859 17.4053C18.2948 17.3673 18.1972 17.3478 18.0985 17.3477C17.9999 17.3475 17.9022 17.3669 17.811 17.4046C17.7199 17.4423 17.6371 17.4976 17.5673 17.5673C17.4976 17.6371 17.4423 17.7199 17.4046 17.811C17.3669 17.9022 17.3475 17.9999 17.3477 18.0985C17.3478 18.1972 17.3673 18.2948 17.4053 18.3859C17.4432 18.477 17.4987 18.5596 17.5686 18.6292L18.8944 19.955C18.964 20.0248 19.0467 20.0801 19.1377 20.1178C19.2287 20.1556 19.3263 20.175 19.4248 20.175C19.5234 20.1751 19.6209 20.1557 19.712 20.118C19.803 20.0803 19.8857 20.025 19.9554 19.9554C20.0251 19.8857 20.0803 19.803 20.118 19.712C20.1557 19.6209 20.1751 19.5234 20.175 19.4248C20.175 19.3263 20.1556 19.2287 20.1178 19.1377C20.0801 19.0467 20.0248 18.964 19.955 18.8944L18.6292 17.5686Z" fill="currentColor"/>
<path d="M22.5 11.25H20.625C20.4261 11.25 20.2353 11.329 20.0947 11.4697C19.954 11.6103 19.875 11.8011 19.875 12C19.875 12.1989 19.954 12.3897 20.0947 12.5303C20.2353 12.671 20.4261 12.75 20.625 12.75H22.5C22.6989 12.75 22.8897 12.671 23.0303 12.5303C23.171 12.3897 23.25 12.1989 23.25 12C23.25 11.8011 23.171 11.6103 23.0303 11.4697C22.8897 11.329 22.6989 11.25 22.5 11.25Z" fill="currentColor"/>
<path d="M18.0996 6.65133C18.1981 6.65146 18.2957 6.63212 18.3867 6.59442C18.4777 6.55672 18.5604 6.5014 18.6299 6.43165L19.9558 5.10583C20.0255 5.03621 20.0808 4.95352 20.1185 4.86251C20.1563 4.7715 20.1757 4.67394 20.1758 4.57542C20.1758 4.47689 20.1564 4.37932 20.1187 4.28828C20.081 4.19725 20.0258 4.11453 19.9561 4.04486C19.8864 3.97519 19.8037 3.91993 19.7127 3.88224C19.6216 3.84455 19.5241 3.82516 19.4255 3.8252C19.327 3.82523 19.2294 3.84467 19.1384 3.88242C19.0474 3.92017 18.9647 3.97548 18.8951 4.04519L17.5693 5.37101C17.4644 5.4759 17.393 5.60954 17.364 5.75502C17.3351 5.90051 17.3499 6.05131 17.4067 6.18836C17.4635 6.3254 17.5596 6.44254 17.6829 6.52495C17.8063 6.60736 17.9513 6.65134 18.0996 6.65133H18.0996Z" fill="currentColor"/>
</svg>
