<svg viewBox="0 0 24 24" fill="none" xmlns="http://www.w3.org/2000/svg">
<path d="M6.75 9.375H3C2.58579 9.375 2.25 9.71079 2.25 10.125V13.875C2.25 14.2892 2.58579 14.625 3 14.625H6.75C7.16421 14.625 7.5 14.2892 7.5 13.875V10.125C7.5 9.71079 7.16421 9.375 6.75 9.375Z" stroke="white" stroke-width="1.5" stroke-linecap="round" stroke-linejoin="round"/>
<path d="M20.25 3.75H15.75C15.3358 3.75 15 4.08579 15 4.5V9C15 9.41421 15.3358 9.75 15.75 9.75H20.25C20.6642 9.75 21 9.41421 21 9V4.5C21 4.08579 20.6642 3.75 20.25 3.75Z" stroke="white" stroke-width="1.5" stroke-linecap="round" stroke-linejoin="round"/>
<path d="M20.25 14.25H15.75C15.3358 14.25 15 14.5858 15 15V19.5C15 19.9142 15.3358 20.25 15.75 20.25H20.25C20.6642 20.25 21 19.9142 21 19.5V15C21 14.5858 20.6642 14.25 20.25 14.25Z" stroke="white" stroke-width="1.5" stroke-linecap="round" stroke-linejoin="round"/>
<path d="M7.5 12H11.25" stroke="white" stroke-width="1.5" stroke-linecap="round" stroke-linejoin="round"/>
<path d="M15 17.25H13.5C12.9033 17.25 12.331 17.0129 11.909 16.591C11.4871 16.169 11.25 15.5967 11.25 15V9C11.25 8.40326 11.4871 7.83097 11.909 7.40901C12.331 6.98705 12.9033 6.75 13.5 6.75H15" stroke="white" stroke-width="1.5" stroke-linecap="round" stroke-linejoin="round"/>
</svg>
